<svg width="184" height="36" viewBox="100 90 160 170" xmlns="http://www.w3.org/2000/svg"
  xmlnsXlink="http://www.w3.org/1999/xlink" zoomAndPan="magnify" preserveAspectRatio="xMidYMid meet" version="1.0"
  aria-hidden="true">
  <g clip-path="url(#d41a246287)">
    <path fill="currentColor"
      d="M 244.699219 157.460938 C 241.109375 157.460938 238.109375 159.867188 237.132812 163.140625 L 227.3125 163.140625 C 226.769531 151.140625 221.972656 140.253906 214.359375 131.9375 L 221.3125 124.980469 C 222.496094 125.597656 223.769531 125.960938 225.0625 125.960938 C 227.109375 125.960938 229.15625 125.1875 230.699219 123.617188 C 232.199219 122.117188 233.019531 120.117188 233.019531 118.003906 C 233.019531 115.867188 232.199219 113.867188 230.699219 112.367188 C 227.609375 109.277344 222.5625 109.277344 219.449219 112.367188 C 216.90625 114.914062 216.496094 118.753906 218.109375 121.753906 L 211.15625 128.710938 C 202.835938 121.117188 191.925781 116.324219 179.949219 115.777344 L 179.949219 105.9375 C 183.222656 104.960938 185.609375 101.960938 185.609375 98.367188 C 185.609375 93.980469 182.039062 90.414062 177.65625 90.414062 C 173.269531 90.414062 169.699219 93.980469 169.699219 98.367188 C 169.699219 101.960938 172.109375 104.960938 175.40625 105.960938 L 175.40625 115.777344 C 163.40625 116.324219 152.496094 121.117188 144.175781 128.710938 L 137.222656 121.753906 C 137.835938 120.617188 138.199219 119.347656 138.199219 118.003906 C 138.199219 115.867188 137.382812 113.867188 135.882812 112.367188 C 132.789062 109.277344 127.746094 109.277344 124.632812 112.367188 C 121.542969 115.480469 121.542969 120.527344 124.632812 123.617188 C 126.132812 125.117188 128.132812 125.960938 130.246094 125.960938 L 130.269531 125.960938 C 131.585938 125.960938 132.859375 125.597656 134.019531 124.980469 L 140.972656 131.9375 C 133.359375 140.253906 128.5625 151.140625 128.019531 163.140625 L 118.199219 163.140625 C 117.222656 159.867188 114.222656 157.460938 110.609375 157.460938 C 108.425781 157.460938 106.425781 158.347656 104.996094 159.800781 C 103.539062 161.230469 102.65625 163.210938 102.65625 165.414062 C 102.65625 169.800781 106.222656 173.367188 110.609375 173.367188 C 114.199219 173.367188 117.222656 170.960938 118.199219 167.6875 L 128.019531 167.6875 C 128.539062 179.6875 133.359375 190.574219 140.972656 198.890625 L 133.996094 205.867188 C 130.996094 204.324219 127.085938 204.753906 124.632812 207.1875 C 121.542969 210.300781 121.542969 215.347656 124.632812 218.4375 C 126.175781 219.980469 128.222656 220.777344 130.246094 220.777344 C 132.289062 220.777344 134.335938 219.980469 135.882812 218.4375 C 137.382812 216.9375 138.199219 214.9375 138.199219 212.824219 C 138.199219 211.480469 137.859375 210.210938 137.222656 209.074219 L 144.175781 202.117188 C 152.496094 209.6875 163.40625 214.480469 175.40625 215.027344 L 175.40625 224.867188 C 172.109375 225.847656 169.699219 228.867188 169.699219 232.460938 C 169.699219 236.847656 173.269531 240.414062 177.65625 240.414062 C 182.039062 240.414062 185.609375 236.847656 185.609375 232.460938 C 185.609375 228.867188 183.222656 225.867188 179.949219 224.867188 L 179.949219 215.027344 C 191.925781 214.480469 202.835938 209.6875 211.15625 202.117188 L 218.109375 209.050781 C 217.472656 210.210938 217.109375 211.480469 217.109375 212.824219 C 217.109375 214.9375 217.949219 216.9375 219.449219 218.4375 C 220.996094 219.980469 223.039062 220.777344 225.0625 220.777344 C 227.109375 220.777344 229.15625 219.980469 230.699219 218.4375 C 232.199219 216.9375 233.019531 214.9375 233.019531 212.824219 C 233.019531 210.6875 232.199219 208.6875 230.699219 207.1875 C 228.15625 204.640625 224.335938 204.230469 221.3125 205.847656 L 214.359375 198.890625 C 221.972656 190.574219 226.789062 179.6875 227.335938 167.6875 L 237.132812 167.6875 C 238.109375 170.960938 241.132812 173.367188 244.699219 173.367188 C 249.085938 173.367188 252.65625 169.800781 252.65625 165.414062 C 252.65625 161.027344 249.085938 157.460938 244.699219 157.460938 Z M 179.949219 120.367188 C 190.675781 120.914062 200.40625 125.1875 207.90625 131.960938 L 193.996094 145.867188 C 190.132812 142.617188 185.269531 140.503906 179.949219 140.027344 Z M 175.40625 120.367188 L 175.40625 140.027344 C 170.0625 140.503906 165.199219 142.617188 161.335938 145.867188 L 147.425781 131.960938 C 154.925781 125.1875 164.65625 120.914062 175.40625 120.367188 Z M 144.222656 135.1875 L 158.109375 149.074219 C 154.859375 152.960938 152.769531 157.824219 152.292969 163.140625 L 132.609375 163.140625 C 133.15625 152.414062 137.449219 142.664062 144.222656 135.1875 Z M 132.609375 167.6875 L 152.292969 167.6875 C 152.746094 173.003906 154.859375 177.867188 158.132812 181.753906 L 144.222656 195.640625 C 137.425781 188.164062 133.15625 178.414062 132.609375 167.6875 Z M 175.40625 210.4375 C 164.65625 209.890625 154.925781 205.617188 147.425781 198.847656 L 161.335938 184.960938 C 165.222656 188.210938 170.0625 190.300781 175.40625 190.777344 Z M 177.675781 177.210938 C 171.152344 177.210938 165.835938 171.914062 165.835938 165.414062 C 165.835938 158.890625 171.152344 153.597656 177.675781 153.597656 C 184.175781 153.597656 189.496094 158.890625 189.496094 165.414062 C 189.496094 171.914062 184.175781 177.210938 177.675781 177.210938 Z M 179.949219 210.4375 L 179.949219 190.777344 C 185.269531 190.300781 190.109375 188.210938 193.996094 184.960938 L 207.90625 198.847656 C 200.40625 205.617188 190.675781 209.890625 179.949219 210.4375 Z M 211.109375 195.640625 L 197.222656 181.753906 C 200.472656 177.867188 202.585938 173.003906 203.039062 167.6875 L 222.722656 167.6875 C 222.175781 178.414062 217.90625 188.164062 211.109375 195.640625 Z M 203.039062 163.140625 C 202.585938 157.824219 200.472656 152.960938 197.222656 149.074219 L 211.109375 135.1875 C 217.882812 142.664062 222.175781 152.414062 222.722656 163.140625 Z M 203.039062 163.140625 "
      fill-opacity="1" fill-rule="nonzero" />
  </g>
</svg>